<?xml version="1.0" encoding="UTF-8" standalone="no"?>
<!-- Created with Inkscape (http://www.inkscape.org/) -->

<svg
   xmlns:dc="http://purl.org/dc/elements/1.1/"
   xmlns:cc="http://creativecommons.org/ns#"
   xmlns:rdf="http://www.w3.org/1999/02/22-rdf-syntax-ns#"
   xmlns:svg="http://www.w3.org/2000/svg"
   xmlns="http://www.w3.org/2000/svg"
   xmlns:sodipodi="http://sodipodi.sourceforge.net/DTD/sodipodi-0.dtd"
   xmlns:inkscape="http://www.inkscape.org/namespaces/inkscape"
   id="svg3355"
   version="1.1"
   inkscape:version="0.91 r13725"
   xml:space="preserve"
   width="249.375"
   height="311.42001"
   viewBox="0 0 249.375 311.42001"
   sodipodi:docname="monstercat.svg"><metadata
     id="metadata3361"><rdf:RDF><cc:Work
         rdf:about=""><dc:format>image/svg+xml</dc:format><dc:type
           rdf:resource="http://purl.org/dc/dcmitype/StillImage" /><dc:title></dc:title></cc:Work></rdf:RDF></metadata><defs
     id="defs3359"><clipPath
       clipPathUnits="userSpaceOnUse"
       id="clipPath3369"><path
         d="m 0,249.136 199.5,0 L 199.5,0 0,0 0,249.136 Z"
         id="path3371"
         inkscape:connector-curvature="0" /></clipPath></defs><sodipodi:namedview
     pagecolor="#ffffff"
     bordercolor="#666666"
     borderopacity="1"
     objecttolerance="10"
     gridtolerance="10"
     guidetolerance="10"
     inkscape:pageopacity="0"
     inkscape:pageshadow="2"
     inkscape:window-width="1920"
     inkscape:window-height="1055"
     id="namedview3357"
     showgrid="false"
     inkscape:zoom="2.8161324"
     inkscape:cx="124.6875"
     inkscape:cy="155.71001"
     inkscape:window-x="0"
     inkscape:window-y="25"
     inkscape:window-maximized="0"
     inkscape:current-layer="g3363" /><g
     id="g3363"
     inkscape:groupmode="layer"
     inkscape:label="monstercat_logo_final_noshaddow"
     transform="matrix(1.25,0,0,-1.25,0,311.42)"><g
       id="g3365"><g
         id="g3367"
         clip-path="url(#clipPath3369)"><g
           id="g3373"
           transform="translate(125.6821,185.4795)"><path
             d="M 0,0 C -0.065,0.079 -0.141,0.148 -0.206,0.226 -0.72,2.927 -1.315,5.939 -1.972,9.081 -1.509,8.515 -1.059,7.947 -0.639,7.376 0.824,5.363 1.976,3.355 2.909,1.484 1.901,1.189 0.921,0.698 0,0 m -3.452,-45.388 c -1.906,0.174 -3.738,0.27 -5.51,0.311 l -4.601,10.781 -2.026,-10.915 c -7.623,-0.504 -13.695,-2.156 -18.287,-3.979 l -6.626,8.13 1.109,-10.723 c -3.467,-1.927 -5.196,-3.519 -5.196,-3.519 -5.798,5.83 -10.445,15.896 -12.567,20.298 2.654,1.847 5.451,3.464 8.327,4.894 l 7.183,-7.958 -1.636,10.451 c 8.352,3.371 17.029,5.309 24.645,6.415 l 4.827,-8.818 0.805,9.516 c 5.37,0.553 9.902,0.702 12.947,0.715 0.062,-12.775 -2.016,-21.486 -3.394,-25.599 m -39.381,65.271 c 4.979,1.184 9.433,1.692 13.416,1.692 1.215,-0.004 2.375,-0.069 3.506,-0.161 -0.88,-2.583 -1.665,-5.062 -2.297,-7.158 -0.765,0.044 -1.525,0.116 -2.301,0.116 -6.808,0 -13.211,-1.722 -18.805,-4.748 -1.269,2.016 -2.751,4.298 -4.341,6.59 -0.031,0.043 -0.062,0.085 -0.092,0.13 3.189,1.359 6.799,2.557 10.914,3.539 m -30.979,-31.649 c -1.254,-0.021 -2.451,-0.31 -3.577,-0.808 0.571,4.076 1.929,8.824 4.777,13.479 0.122,-4.488 0.332,-8.936 0.556,-12.862 -0.587,0.125 -1.173,0.191 -1.756,0.191 m 88.463,-91.464 c 6.707,19.241 3.825,29.555 -2.883,35.288 11.827,2.855 22.088,5.69 23.244,7.177 5.603,7.203 -0.031,26.07 -10.627,24.053 -3.723,-0.709 -12.04,-4.559 -21.259,-9.251 2.673,4.32 4.527,9.182 5.375,14.395 6.058,1.981 10.792,8.687 10.827,15.847 0,1.033 -0.099,2.076 -0.311,3.116 -1.288,6.145 -5.049,11.321 -9.56,13.423 -1.185,2.858 -2.948,6.355 -5.509,9.89 -2.101,2.926 -4.81,5.866 -8.176,8.445 -1.191,4.935 -2.48,9.659 -3.809,13.449 -0.857,2.446 -1.725,4.501 -2.63,6.018 -0.922,1.464 -1.817,2.636 -3.379,2.719 -0.103,0 -0.225,-0.007 -0.37,-0.03 -2.35,-0.478 -3.976,-2.878 -5.747,-6.014 -1.307,-2.4 -2.577,-5.329 -3.751,-8.362 -1.757,0.2 -3.583,0.317 -5.503,0.312 -4.47,0 -9.365,-0.574 -14.722,-1.845 -4.91,-1.157 -9.221,-2.648 -13.03,-4.375 -1.247,1.609 -2.507,3.123 -3.736,4.428 -2.441,2.521 -4.616,4.392 -6.963,4.471 -0.186,0 -0.367,-0.016 -0.549,-0.045 -1.288,-0.257 -1.95,-1.309 -2.449,-2.502 -1.355,-3.39 -1.774,-9.835 -1.842,-17.23 -1.563,-1.682 -2.922,-3.414 -4.075,-5.173 -5.571,-8.469 -6.672,-17.242 -6.672,-22.942 0,-0.176 0.006,-0.334 0.009,-0.504 -1.654,-2.943 -2.635,-6.581 -2.648,-10.367 -0.004,-0.045 -0.001,-0.091 0.007,-0.136 0.123,-8.906 7.771,-16.39 15.455,-16.445 l 0.019,0 c 1.806,0 3.61,0.472 5.28,1.426 3.849,-7.113 9.83,-12.881 17.065,-16.527 -17.19,0.709 -37.691,1.196 -39.871,-0.41 -7.461,-5.489 -7.461,-25.096 3.316,-25.88 4.587,-0.332 16.982,2.035 29.707,4.861 -10.027,-14.409 -14.125,-34.75 4.893,-54.005 -22.892,11.263 -37.336,3.784 -27.031,-19.022 11.772,-3.377 47.347,0.465 50.869,2.877 3.46,2.372 -25.447,63.882 2.056,68.989 35.11,2.301 20.309,-37.917 24.105,-39.832 9.027,-4.555 31.507,-0.91 42.755,3.779 6.488,24.446 -7.068,30.465 -27.88,15.934"
             style="fill:#000000;fill-opacity:1;fill-rule:nonzero;stroke:none"
             id="path3375"
             inkscape:connector-curvature="0" /></g><g
           id="g3377"
           transform="translate(35,84.1875)"><path
             d="m 0,0 c 0,-2.762 -2.239,-5 -5,-5 -2.761,0 -5,2.238 -5,5 0,2.762 2.239,5 5,5 2.761,0 5,-2.238 5,-5"
             style="fill:#020202;fill-opacity:1;fill-rule:nonzero;stroke:none"
             id="path3379"
             inkscape:connector-curvature="0" /></g><g
           id="g3381"
           transform="translate(104.25,104.0205)"><path
             d="m 0,0 c 0,0 11,-27.75 -16.75,-22.25 -27.75,5.5 -49,7.334 -57.5,2.417"
             style="fill:none;stroke:#020202;stroke-width:10;stroke-linecap:butt;stroke-linejoin:miter;stroke-miterlimit:10;stroke-dasharray:none;stroke-opacity:1"
             id="path3383"
             inkscape:connector-curvature="0" /></g></g></g></g></svg>