<?xml version="1.0" encoding="UTF-8" standalone="no"?>
<!-- Created with Inkscape (http://www.inkscape.org/) -->

<svg
   xmlns:dc="http://purl.org/dc/elements/1.1/"
   xmlns:cc="http://creativecommons.org/ns#"
   xmlns:rdf="http://www.w3.org/1999/02/22-rdf-syntax-ns#"
   xmlns:svg="http://www.w3.org/2000/svg"
   xmlns="http://www.w3.org/2000/svg"
   xmlns:sodipodi="http://sodipodi.sourceforge.net/DTD/sodipodi-0.dtd"
   xmlns:inkscape="http://www.inkscape.org/namespaces/inkscape"
   width="1675.2837"
   height="1266.1317"
   id="svg3643"
   version="1.1"
   inkscape:version="0.91 r13725"
   sodipodi:docname="frost_wolf_brown.svg">
  <defs
     id="defs3" />
  <sodipodi:namedview
     inkscape:document-units="mm"
     id="base"
     pagecolor="#ffffff"
     bordercolor="#666666"
     borderopacity="1.0"
     inkscape:pageopacity="0.0"
     inkscape:pageshadow="2"
     inkscape:zoom="0.35"
     inkscape:cx="-254.34712"
     inkscape:cy="1129.0576"
     inkscape:current-layer="layer1"
     showgrid="false"
     units="mm"
     fit-margin-top="0"
     fit-margin-left="0"
     fit-margin-right="0"
     fit-margin-bottom="0"
     inkscape:window-width="1855"
     inkscape:window-height="1056"
     inkscape:window-x="65"
     inkscape:window-y="24"
     inkscape:window-maximized="1" />
  <metadata
     id="metadata4">
    <rdf:RDF>
      <cc:Work
         rdf:about="">
        <dc:format>image/svg+xml</dc:format>
        <dc:type
           rdf:resource="http://purl.org/dc/dcmitype/StillImage" />
        <dc:title></dc:title>
      </cc:Work>
    </rdf:RDF>
  </metadata>
  <g
     inkscape:label="Layer 1"
     inkscape:groupmode="layer"
     id="layer1"
     transform="translate(757.64185,163.56081)">
    <path
       style="fill:#9b8282;fill-opacity:1;stroke:none"
       d="m -153.1738,554.7943 122.8572,175 -24.2857,98.5714 -20.7143,11.42869 -15,40 18.5714,2.8571 0,5 26.4286,4.2856 5.7143,-2.1429 0.7142,2.1429 25.7143,-4.2856 12.1429,-16.4285 -1.4286,-24.2858 20,-33.57149 1.4286,-92.8571 -105,-208.5714 z"
       id="path5166-3-9-0"
       inkscape:connector-curvature="0"
       inkscape:export-filename="D:\images\PNG\g3968.png"
       inkscape:export-xdpi="41.097588"
       inkscape:export-ydpi="41.097588" />
    <path
       style="fill:#704f4f;fill-opacity:1;stroke:none"
       d="m 47.5405,230.5086 40.7143,-4.2857 37.1428,-2.1429 -13.5714,7.8572 24.2857,0 42.1429,-7.1429 -12.1429,8.5714 58.5715,-12.8571 c 0,0 -7.8572,5.7143 -5,5.7143 2.8571,0 64.28585,-20 64.28585,-20 l -1.4286,2.8571 45,-1.4286 -2.8571,4.2858 52.8571,-3.5715 -2.8571,2.8572 63.5714,-0.7143 42.1428,19.2857 25.7143,8.5714 -20.6635,6.8618 24.6175,12.0265 -29.6683,-3.174 10.7143,33.5714 -22.1428,-16.4285 -40,136.4286 -15.7143,19.2856 L 32.5405,515.5086 53.9691,341.9372 z"
       id="path5395-3-5-9"
       inkscape:connector-curvature="0"
       sodipodi:nodetypes="ccccccccsccccccccccccccccccc"
       inkscape:export-filename="D:\images\PNG\g3968.png"
       inkscape:export-xdpi="41.097588"
       inkscape:export-ydpi="41.097588" />
    <path
       style="fill:#704f4f;fill-opacity:1;stroke:none"
       d="m -357.9381,100.0896 48.2348,18.6878 46.3116,23.1333 45.9874,16.9918 -13.132,0 19.8439,7.3706 18.7257,5.7614 -4.3216,3.5714 22.8077,6.9625 21.6749,10.8124 -7.1936,3.1171 25.8231,0.6564 29.5007,4.7769 -11.5914,6.5406 31.1194,-0.062 49.8154,3.7455 c 0,0 -14.2554,7.589 -10.2854,6.8365 l 44.6163,-4.338 -9.4063,6.1069 70.7007,-1.7075 -4.7532,9.42 68.6343,134.4208 -17.6759,125.1659 -129.5475,56.6429 -189.8249,22.0109 -14.7443,-2.964 -36.3655,-69.7006 -8.0812,23.2336 -16.1117,-67.5069 -10.1523,32.1515 -23.6012,-109.6374 -3.6729,32.8658 -19.2647,-73.0776 -7.2443,21.8049 -26.5896,-126.2183 z"
       id="path4984-2-9-4"
       inkscape:connector-curvature="0"
       sodipodi:nodetypes="ccccccccccccccccsccccccccccccccccccc"
       inkscape:export-filename="D:\images\PNG\g3968.png"
       inkscape:export-xdpi="41.097588"
       inkscape:export-ydpi="41.097588" />
    <path
       style="fill:#9b8282;fill-opacity:1;stroke:none"
       d="m 206.8262,526.9371 18.5714,60 5.7144,15.7143 2.8572,-14.2857 2.8571,9.2857 5,-10.7143 179.28575,13.5715 37.1429,192.1428 -34.2857,30.7143 -6.4286,24.99999 4.2857,12.8572 15.7143,-0.7144 -1.4286,6.4285 21.4286,2.8572 12.8571,-5.7143 0.7143,7.8571 37.8572,-7.8571 25.7143,-29.99989 -10.7143,-31.4286 5.7143,-9.2857 6.4285,-5 -5.7143,-22.1428 -19.2857,-30.7143 -53.5714,-179.2857 -142.8571,-60 z"
       id="path5448-4-4-8"
       inkscape:connector-curvature="0"
       inkscape:export-filename="D:\images\PNG\g3968.png"
       inkscape:export-xdpi="41.097588"
       inkscape:export-ydpi="41.097588" />
    <path
       style="fill:#9b8282;fill-opacity:1;stroke:none"
       d="m -151.2035,562.1558 133.3402,-19.1929 85.863,-33.8401 228.29455,-44.9518 35.3554,-19.1929 -258.59925,29.2944 -113.1371,52.5279 -146.4721,7.0711 -39.396,6.0609 -4.0406,35.3553 z"
       id="path5446-1-5-8"
       inkscape:connector-curvature="0"
       sodipodi:nodetypes="ccccccccccc"
       inkscape:export-filename="D:\images\PNG\g3968.png"
       inkscape:export-xdpi="41.097588"
       inkscape:export-ydpi="41.097588" />
    <path
       style="fill:#9b8282;fill-opacity:1;stroke:none"
       d="m -291.7452,126.2229 75.7143,30.7143 -5.7143,4.2857 35,8.5714 -5.7143,6.4286 43.5714,15.7143 37.8572,5 19.2857,5.7142 c 0,0 -14.2857,2.8572 -8.5714,2.8572 5.7143,0 75,5 75,5 l -5.7143,3.5714 41.4285,-1.4286 -3.5714,6.4286 50.4754,-0.6561 -1.082,8.9391 79.8923,-6.8544 -12.1428,8.5714 49.0285,-6.2656 -4.8934,10.9409 53.4351,-17.1221 5.4125,5.0443 57.05845,-19.8208 2.3563,6.7771 39.5656,-3.113 1.0328,6.898 58.3651,-9.4233 1.6894,6.3457 52.464,-1.0032 65.1658,29.4028 -17.265,8.3323 18.5124,9.8528 -24.1955,20.0251 -149.1938,-38.7909 -3.4697,12.8364 -76.6271,-8.7269 16.0235,10.5943 -51.67805,-8.6752 -30.9487,5.8314 10.0638,16.0346 -41.4292,-10.0984 -39.1998,7.4188 -2.5181,16.6729 -52.2294,-12.3684 -3.3561,6.5995 -56.8721,-11.2322 -0.7309,12.412 -96.995,-16.8075 -61.3862,-28.5556 -0.193,7.451 -61.3892,-36.0978 1.1827,11.4882 z"
       id="path5397-2-0-2"
       inkscape:connector-curvature="0"
       sodipodi:nodetypes="ccccccccsccccccccccccccccccccccccccccccccccccccccccc"
       inkscape:export-filename="D:\images\PNG\g3968.png"
       inkscape:export-xdpi="41.097588"
       inkscape:export-ydpi="41.097588" />
    <path
       style="fill:#9b8282;fill-opacity:1;stroke:none"
       d="m -535.62564,122.9046 6.8386,24.4328 -18.7473,17.9547 61.81194,77.9866 -23.73864,-82.3274 -1.2627,-44.6993 z"
       id="path4932-9-5-4"
       inkscape:connector-curvature="0"
       sodipodi:nodetypes="ccccccc"
       inkscape:export-filename="D:\images\PNG\g3968.png"
       inkscape:export-xdpi="41.097588"
       inkscape:export-ydpi="41.097588" />
    <path
       style="fill:#704f4f;stroke:none;fill-opacity:1"
       d="m -506.61024,103.2367 -3.8745,-27.7665 -4.6105,-35.9409 3.4309,-13.9308 c 2.2908,0.8691 33.13524,23.0942 33.13524,23.0942 l 46.483,41.8893 -37.2045,12.2614 z"
       id="path4860-0-0-8-5"
       inkscape:connector-curvature="0"
       sodipodi:nodetypes="cccccccc"
       inkscape:export-filename="D:\images\PNG\g3968.png"
       inkscape:export-xdpi="41.097588"
       inkscape:export-ydpi="41.097588" />
    <path
       style="fill:#9b8282;fill-opacity:1;stroke:none"
       d="m -511.82804,39.3368 14.14214,6.566 15.8845,33.9193 -2.2295,12.5942 -25.29714,12.9661 -0.9848,-29.6801 z"
       id="path4886-8-8-5"
       inkscape:connector-curvature="0"
       sodipodi:nodetypes="ccccccc"
       inkscape:export-filename="D:\images\PNG\g3968.png"
       inkscape:export-xdpi="41.097588"
       inkscape:export-ydpi="41.097588" />
    <path
       style="fill:#704f4f;fill-opacity:1;stroke:none"
       d="m -520.42854,145.704 -2.2193,-6.2153 -4.4924,-2.7003 -3.1572,2.0084 -8.2966,1.6738 4.913,12.4484 6.6677,3.128 z"
       id="path4992-1-3-9-1"
       inkscape:connector-curvature="0"
       sodipodi:nodetypes="cccccccc"
       inkscape:export-filename="D:\images\PNG\g3968.png"
       inkscape:export-xdpi="41.097588"
       inkscape:export-ydpi="41.097588" />
    <path
       style="fill:#393939;fill-opacity:1;stroke:none"
       d="m -528.56574,136.8261 8.5932,10.4911 -7.4477,5.5804 -6.0192,-2.7679 -0.015,-6.9754 z"
       id="path4054-3-7-0-7"
       inkscape:connector-curvature="0"
       sodipodi:nodetypes="cccccc"
       inkscape:export-filename="D:\images\PNG\g3968.png"
       inkscape:export-xdpi="41.097588"
       inkscape:export-ydpi="41.097588" />
    <path
       style="fill:#9b8282;fill-opacity:1;stroke:none"
       d="m -358.1738,349.08 -4.416,-43.2861 -39.1134,-66.397 49.958,-29.6026 35,16.4286 29.2857,52.8571 12.1429,55 -9.2858,-17.1428 12.1429,48.5714 -8.5714,-7.1429 20,42.1429 -10.7143,-9.2857 29.2857,75 -10.7143,-7.1429 36.4286,65 -10.7143,50.7143 -32.8571,-70.7143 -13.5715,19.2857 -12.1428,-59.2857 -13.5715,23.5714 -18.5714,-92.1428 -10.7143,15 -14.2857,-66.4286 -11.4286,20 z"
       id="path4986-4-1-1"
       inkscape:connector-curvature="0"
       sodipodi:nodetypes="ccccccccccccccccccccccccc"
       inkscape:export-filename="D:\images\PNG\g3968.png"
       inkscape:export-xdpi="41.097588"
       inkscape:export-ydpi="41.097588" />
    <path
       style="fill:#9b8282;fill-opacity:1;stroke:none"
       d="m -384.2021,233.4297 c 4.0406,3.0305 67.6697,78.9758 67.6697,78.9758 l 6.2045,-43.3754 19.5396,6.3017 1.3042,-37.4641 21.2911,-4.5903 -14.4096,-36.9804 26.4089,8.5167 -20.3869,-37.7941 18.1722,-3.8202 -22.4322,-15.729 8.9029,-4.0821 -31.7691,-25.3716 -58.405,-6.2342 z"
       id="path4988-5-3-1"
       inkscape:connector-curvature="0"
       sodipodi:nodetypes="ccccccccccccccc"
       inkscape:export-filename="D:\images\PNG\g3968.png"
       inkscape:export-xdpi="41.097588"
       inkscape:export-ydpi="41.097588" />
    <path
       style="fill:#704f4f;stroke:none;fill-opacity:1"
       d="m -632.45954,199.7943 108.5714,-45 8.806,-20.5663 -22.3774,-16.5765 72.14294,-40 90.3317,0.7396 42.6238,26.9804 28.473,11.5657 27.8126,24.9492 -19.2052,2.5402 28.0514,18.6074 -25.6127,-1.6737 32.8213,38.4997 -34.7191,-17.0352 20.0508,48.2904 -28.7955,-21.1983 11.025,54.6398 -33.0887,-10.1882 3.4056,42.742 -72.4597,-38.7447 c 0,0 -35,-9.2858 -37.8572,-9.2858 -2.8571,0 -159.04814,3.954 -159.04814,3.954 l -1.618,-4.039 -7.5514,-0.7878 z"
       id="path4858-6-2-5"
       inkscape:connector-curvature="0"
       sodipodi:nodetypes="ccccccccccccccccccccscccc"
       inkscape:export-filename="D:\images\PNG\g3968.png"
       inkscape:export-xdpi="41.097588"
       inkscape:export-ydpi="41.097588" />
    <path
       style="fill:#704f4f;fill-opacity:1;stroke:none"
       d="m -451.4176,90.6411 1.0864,-17.5128 1.8595,-38.6824 8.5717,-17.3841 c -2.3561,0 35.0336,23.4836 35.0336,23.4836 l 41.3829,49.4839 -41.9383,9.6883 z"
       id="path4860-8-2-2"
       inkscape:connector-curvature="0"
       sodipodi:nodetypes="cccccccc"
       inkscape:export-filename="D:\images\PNG\g3968.png"
       inkscape:export-xdpi="41.097588"
       inkscape:export-ydpi="41.097588" />
    <path
       style="fill:#9b8282;fill-opacity:1;stroke:none"
       d="m -447.4505,69.7938 -16.8125,7.2812 -19.625,-4.7812 6,6.7187 -26.00004,4.7187 10.00004,3.2188 -24.28124,13.5625 23.65624,-6.5937 -5.0938,9.9687 12.375,-9.3437 30.3126,-10.875 4.4062,-1.375 11.4688,-0.3438 -6.4063,-12.1562 z"
       id="path4977-0-2-7"
       inkscape:connector-curvature="0"
       inkscape:export-filename="D:\images\PNG\g3968.png"
       inkscape:export-xdpi="41.097588"
       inkscape:export-ydpi="41.097588" />
    <path
       style="fill:#000000;stroke:none"
       d="m -642.55974,197.3122 37.4246,-10.0024 -4.067,20.8717 -2.7906,-1.2343 -1.2344,2.7905 -0.6036,4.2581 -8.8453,4.4977 z"
       id="path4888-7-7-6"
       inkscape:connector-curvature="0"
       inkscape:export-filename="D:\images\PNG\g3968.png"
       inkscape:export-xdpi="41.097588"
       inkscape:export-ydpi="41.097588" />
    <path
       style="fill:#9b8282;fill-opacity:1;stroke:none"
       d="m -512.63814,155.5086 25.28824,17.9928 28.036,19.9479 46.5808,-22.0965 22.7736,-27.6299 -89.4201,-12.3342 -28.56624,4.75 z"
       id="path4894-7-0-1"
       inkscape:connector-curvature="0"
       sodipodi:nodetypes="cccccccc"
       inkscape:export-filename="D:\images\PNG\g3968.png"
       inkscape:export-xdpi="41.097588"
       inkscape:export-ydpi="41.097588" />
    <path
       style="fill:#9b8282;fill-opacity:1;stroke:none"
       d="m -508.65164,135.2593 13.46634,-18.9502 0,5.5393 24.7901,-11.9533 -2.1423,5.5394 42.8471,-4.9563 -13.4662,8.1632 32.4414,3.207 -42.8472,9.9124 -29.4024,-0.6406 z"
       id="path3874-1-4-3-4"
       inkscape:connector-curvature="0"
       inkscape:export-filename="D:\images\PNG\g3968.png"
       inkscape:export-xdpi="41.097588"
       inkscape:export-ydpi="41.097588"
       sodipodi:nodetypes="ccccccccccc" />
    <path
       style="fill:#9b8282;fill-opacity:1;stroke:none"
       d="m -512.67544,135.2314 -12.2039,-17.5762 -1.0873,5.9424 -12.8425,-9.8502 1.6519,8.0876 -4.3719,1.6436 z"
       id="path3876-2-3-1-2"
       inkscape:connector-curvature="0"
       sodipodi:nodetypes="ccccccc"
       inkscape:export-filename="D:\images\PNG\g3968.png"
       inkscape:export-xdpi="41.097588"
       inkscape:export-ydpi="41.097588" />
    <path
       style="fill:#704f4f;fill-opacity:1;stroke:none"
       d="m -501.12724,152.87 10.35404,-8.8388 16.1625,-3.5355 21.7183,3.0304 57.0736,2.5254 -74.7513,27.2742 z"
       id="path4992-1-3-3"
       inkscape:connector-curvature="0"
       sodipodi:nodetypes="ccccccc"
       inkscape:export-filename="D:\images\PNG\g3968.png"
       inkscape:export-xdpi="41.097588"
       inkscape:export-ydpi="41.097588" />
    <path
       style="fill:#393939;fill-opacity:1;stroke:none"
       d="m -497.0229,151.7128 9.6167,-7.1963 12.552,-0.7989 15.8685,0.5975 12.2251,5.173 -9.9206,4.4236 -13.0852,5.6431 -14.2266,-1.9772 z"
       id="path3966-9-3-3-2"
       inkscape:connector-curvature="0"
       sodipodi:nodetypes="ccccccccc"
       inkscape:export-filename="D:\images\PNG\g3968.png"
       inkscape:export-xdpi="41.097588"
       inkscape:export-ydpi="41.097588" />
    <path
       style="fill:#704f4f;stroke:none;fill-opacity:1"
       d="m -497.3391,151.8598 10.6066,-11.3642 10.6066,-3.5355 14.8997,1.2627 15.4049,11.3642 -12.7532,-4.672 -15.5311,-1.1364 -13.2721,2.091 z"
       id="path4957-6-7-2"
       inkscape:connector-curvature="0"
       sodipodi:nodetypes="ccccccccc"
       inkscape:export-filename="D:\images\PNG\g3968.png"
       inkscape:export-xdpi="41.097588"
       inkscape:export-ydpi="41.097588" />
    <path
       style="fill:#9b8282;fill-opacity:1;stroke:none"
       d="m -451.4713,84.6086 c 2.0203,0 12.8795,0 12.8795,0 l -4.0407,-11.1117 9.849,8.8389 2.5254,-5.0508 5.8083,9.5965 17.1727,11.6167 -4.5457,-36.8706 -34.0927,-31.0622 -2.5253,15.4048 -0.7672,21.2719 z"
       id="path4884-3-0-16"
       inkscape:connector-curvature="0"
       sodipodi:nodetypes="cccccccccccc"
       inkscape:export-filename="D:\images\PNG\g3968.png"
       inkscape:export-xdpi="41.097588"
       inkscape:export-ydpi="41.097588" />
    <path
       style="fill:#9b8282;fill-opacity:1;stroke:none"
       d="m -158.9381,554.6582 111.383,-186.2567 16.9064,112.5156 -15.3974,-1.826 17.1936,40.2538 -39.1422,-16.418 14.305,33.9267 -54.0909,-5.6097 7.2909,8.9405 -17.7898,0.079 -6.4254,10.3226 -40.2941,7.1026 z"
       id="path5006-0-9-8"
       inkscape:connector-curvature="0"
       sodipodi:nodetypes="ccccccccccccc"
       inkscape:export-filename="D:\images\PNG\g3968.png"
       inkscape:export-xdpi="41.097588"
       inkscape:export-ydpi="41.097588" />
    <path
       style="fill:#704f4f;fill-opacity:1;stroke:none"
       d="m -223.8451,294.284 3.2877,86.628 -6.0609,130.3096 16.6656,86.1731 -3.189,19.2235 6.2353,-3.4715 -2.1284,6.432 3.4633,-1.2975 20.3695,107.0928 -5.0508,25.2538 -29.2944,100.00519 -25.2538,13.132 -17.1726,34.3452 15.1523,9.0913 -4.0406,11.1117 25.2538,1.0102 -2.0203,7.0709 53.538,-4.0406 17.1726,-28.2843 16.1625,-5.0507 10.1015,-130.30969 c 0,0 -10.1015,-12.1218 -7.0711,-19.1929 3.0305,-7.0711 -2.0203,-182.8376 7.0711,-188.8985 9.0914,-6.0609 74.9929,-122.8499 74.9929,-122.8499 l 26.0223,-168.0741 -98.541,-35.9015 z"
       id="path4994-1-5-5"
       inkscape:connector-curvature="0"
       sodipodi:nodetypes="ccccccccccccccccccccccscccc"
       inkscape:export-filename="D:\images\PNG\g3968.png"
       inkscape:export-xdpi="41.097588"
       inkscape:export-ydpi="41.097588" />
    <path
       style="fill:#9b8282;fill-opacity:1;stroke:none"
       d="m -132.169,552.6379 -7.5762,21.2132 -6.0609,138.3909 -1.0101,35.3553 8.0812,18.6878 -7.5762,101.01539 -11.3769,27.6312 17.142,-5.9435 0.9962,-4.2237 3.9466,-16.732 -1.6449,-13.6047 7.4657,-77.78929 4.6585,0.6995 -2.7339,-8.797 5.8977,4.4789 -5.3314,-11.6017 -11.4434,-19.8818 5.6845,-166.8209 6.0363,8.0159 -5.5347,-14.4519 z"
       id="path4996-9-5-7"
       inkscape:connector-curvature="0"
       sodipodi:nodetypes="ccccccccccccccccccccc"
       inkscape:export-filename="D:\images\PNG\g3968.png"
       inkscape:export-xdpi="41.097588"
       inkscape:export-ydpi="41.097588" />
    <path
       style="fill:#9b8282;fill-opacity:1;stroke:none"
       d="m -261.9736,898.11019 0.8753,-7.1869 5.52,-6.3614 0.6484,11.6999 9.8132,5.7627 -1.7678,5.2086 -11.1551,-3.347 z"
       id="path5000-0-8-6"
       inkscape:connector-curvature="0"
       sodipodi:nodetypes="cccccccc"
       inkscape:export-filename="D:\images\PNG\g3968.png"
       inkscape:export-xdpi="41.097588"
       inkscape:export-ydpi="41.097588" />
    <path
       style="fill:#9b8282;fill-opacity:1;stroke:none"
       d="m -244.6008,900.35589 -6.8959,10.7393 0.5085,7.5968 12.6277,3.0027 12.4367,-2.2452 1.9572,-6.0609 -15.474,-2.1112 z"
       id="path5002-4-3-1"
       inkscape:connector-curvature="0"
       sodipodi:nodetypes="cccccccc"
       inkscape:export-filename="D:\images\PNG\g3968.png"
       inkscape:export-xdpi="41.097588"
       inkscape:export-ydpi="41.097588" />
    <path
       style="fill:#9b8282;fill-opacity:1;stroke:none"
       d="m -223.6031,909.81619 -5.7774,11.0614 1.0281,6.5954 24.8509,1.8005 29.9706,-6.9791 3.5714,-6.25 -36.7857,1.4286 z"
       id="path5004-2-7-8"
       inkscape:connector-curvature="0"
       sodipodi:nodetypes="cccccccc"
       inkscape:export-filename="D:\images\PNG\g3968.png"
       inkscape:export-xdpi="41.097588"
       inkscape:export-ydpi="41.097588" />
    <path
       style="fill:#704f4f;fill-opacity:1;stroke:none"
       d="m -121.3296,558.1002 49.6261,55.9261 2.5254,24.2436 3.0305,-9.0913 3.0304,21.2132 4.0406,-10.1016 60.4209,81.7147 1.4286,83.3017 -4.4992,40.61539 7.3363,-12.47909 3.953,-1.8946 3.257,-3.975 1.7677,-9.5965 3.1568,-4.6719 0.7576,-92.5552 4.0406,-10.1016 -4.0406,4.0406 0,-6.5659 -2.5254,4.0406 -82.3274,-163.1397 z"
       id="path5168-9-8-9"
       inkscape:connector-curvature="0"
       sodipodi:nodetypes="ccccccccccccccccccccc"
       inkscape:export-filename="D:\images\PNG\g3968.png"
       inkscape:export-xdpi="41.097588"
       inkscape:export-ydpi="41.097588" />
    <path
       style="fill:#9b8282;fill-opacity:1;stroke:none"
       d="m -151.2035,301.5364 -28.2842,106.066 3.5492,44.3648 -6.7201,31.4079 8.4658,-9.5868 12.8878,161.0984 12.1218,-113.137 16.1625,-26.264 -3.9692,-42.3384 9.6749,5.8878 -11.1858,-22.0033 14.7817,8.842 -17.1501,-33.4318 z"
       id="path5399-3-3-2"
       inkscape:connector-curvature="0"
       sodipodi:nodetypes="cccccccccccccc"
       inkscape:export-filename="D:\images\PNG\g3968.png"
       inkscape:export-xdpi="41.097588"
       inkscape:export-ydpi="41.097588" />
    <path
       style="fill:#9b8282;fill-opacity:1;stroke:none"
       d="m -84.0283,864.44399 -7.4499,7.9549 -0.3788,9.2176 9.9753,3.5355 9.8489,-1.894 0.6314,-2.3992 -9.849,-6.4398 z"
       id="path5401-1-7-7"
       inkscape:connector-curvature="0"
       sodipodi:nodetypes="cccccccc"
       inkscape:export-filename="D:\images\PNG\g3968.png"
       inkscape:export-xdpi="41.097588"
       inkscape:export-ydpi="41.097588" />
    <path
       style="fill:#9b8282;fill-opacity:1;stroke:none"
       d="m -70.6438,869.99979 -3.283,16.9201 5.0508,3.2829 23.486,2.778 4.0406,-2.778 -16.92,-3.2829 z"
       id="path5403-4-9-9"
       inkscape:connector-curvature="0"
       inkscape:export-filename="D:\images\PNG\g3968.png"
       inkscape:export-xdpi="41.097588"
       inkscape:export-ydpi="41.097588" />
    <path
       style="fill:#9b8282;fill-opacity:1;stroke:none"
       d="m -39.2452,893.18719 c 0,-1.6071 -0.7143,-16.6071 -0.7143,-16.6071 l 5.7143,7.6786 18.75,1.25 9.2857,-7.3215 -7.5,11.7858 -15.7143,6.4285 z"
       id="path5405-8-3-5"
       inkscape:connector-curvature="0"
       inkscape:export-filename="D:\images\PNG\g3968.png"
       inkscape:export-xdpi="41.097588"
       inkscape:export-ydpi="41.097588" />
    <path
       style="fill:#9b8282;fill-opacity:1;stroke:none"
       d="m 217.5023,321.7394 -39.396,69.7006 -10.1015,87.8832 145.46205,-94.9543 z"
       id="path5444-9-9-4"
       inkscape:connector-curvature="0"
       sodipodi:nodetypes="ccccc"
       inkscape:export-filename="D:\images\PNG\g3968.png"
       inkscape:export-xdpi="41.097588"
       inkscape:export-ydpi="41.097588" />
    <path
       style="fill:#9b8282;fill-opacity:1;stroke:none"
       d="m 471.05065,289.4146 74.7513,193.9493 16.1624,0 36.3655,125.2589 16.1624,70.7107 c 0,0 12.1219,-46.4671 16.1625,-24.2437 4.0406,22.2233 74.7513,98.9949 74.7513,98.9949 l 34.3452,-135.3604 12.1218,10.1015 -42.4264,-117.1777 20.203,8.0813 -80.8122,-133.3402 22.2234,8.0812 -72.731,-74.7512 32.3249,8.0812 -152.0279,-78.7919 z"
       id="path5464-3-1-3"
       inkscape:connector-curvature="0"
       sodipodi:nodetypes="cccccsccccccccccc"
       inkscape:export-filename="D:\images\PNG\g3968.png"
       inkscape:export-xdpi="41.097588"
       inkscape:export-ydpi="41.097588" />
    <path
       style="fill:#704f4f;fill-opacity:1;stroke:none"
       d="m 215.4819,315.6785 -33.335,201.0204 37.3756,42.9315 2.0203,-12.1218 9.0915,15.1523 c 0,0 -3.0306,-14.1422 1.0101,-10.1016 4.0406,4.0406 124.24885,88.3884 124.24885,88.3884 l -78.7919,190.9188 -45.45695,26.26409 -8.3896,44.5209 16.4287,0 -1.4286,5 19.28575,5 17.8571,-4.2857 c 0,0 -3.5714,9.2857 -0.7142,9.2857 2.8571,0 37.8571,-1.4285 37.8571,-1.4285 l 36.4286,-27.8572 -3.5715,-30 12.1429,-7.8571 3.5714,-47.14299 54.2857,-172.8571 -76.4285,-115 134.4503,-126.4619 13.5257,-118.9729 -42.976,-28.8509 -100,1.4285 z"
       id="path5434-2-8-1"
       inkscape:connector-curvature="0"
       sodipodi:nodetypes="cccccsccccccccscccccccccccc"
       inkscape:export-filename="D:\images\PNG\g3968.png"
       inkscape:export-xdpi="41.097588"
       inkscape:export-ydpi="41.097588" />
    <path
       style="fill:#9b8282;fill-opacity:1;stroke:none"
       d="m 413.25495,632.6514 -60.7143,170.7143 -2.8571,36.42869 -9.2858,12.857 3.2143,15 15,-14.2857 3.1956,-39.50909 5.2858,4.859 -4.5528,-13.9213 7.5748,8.6142 -4.8574,-15.6197 z"
       id="path5436-8-2-2"
       inkscape:connector-curvature="0"
       sodipodi:nodetypes="cccccccccccc"
       inkscape:export-filename="D:\images\PNG\g3968.png"
       inkscape:export-xdpi="41.097588"
       inkscape:export-ydpi="41.097588" />
    <path
       style="fill:#9b8282;fill-opacity:1;stroke:none"
       d="m 229.6834,869.79429 -5.5358,8.9286 -3.75,24.8214 5.5358,1.4286 13.7501,-2.1429 -10.1787,-12.3215 z"
       id="path5438-7-8-3"
       inkscape:connector-curvature="0"
       sodipodi:nodetypes="ccccccc"
       inkscape:export-filename="D:\images\PNG\g3968.png"
       inkscape:export-xdpi="41.097588"
       inkscape:export-ydpi="41.097588" />
    <path
       style="fill:#9b8282;fill-opacity:1;stroke:none"
       d="m 245.02905,878.83869 -7.07115,15.6573 -1.2627,15.6574 8.08125,5.0508 17.4252,0.2525 13.3845,-8.0812 -19.4455,1.5152 -7.3236,-6.3134 z"
       id="path5440-4-0-3"
       inkscape:connector-curvature="0"
       inkscape:export-filename="D:\images\PNG\g3968.png"
       inkscape:export-xdpi="41.097588"
       inkscape:export-ydpi="41.097588" />
    <path
       style="fill:#9b8282;fill-opacity:1;stroke:none"
       d="m 278.36405,889.95039 -5.0508,19.6978 -1.2627,11.1116 21.4658,0.7576 20.7081,-5.5558 -27.0216,-3.5356 z"
       id="path5442-8-1-4"
       inkscape:connector-curvature="0"
       inkscape:export-filename="D:\images\PNG\g3968.png"
       inkscape:export-xdpi="41.097588"
       inkscape:export-ydpi="41.097588" />
    <path
       style="fill:#704f4f;fill-opacity:1;stroke:none"
       d="m 591.25885,585.3893 0.7369,60.1645 10.7683,-5.5971 10.7181,43.4174 14.1421,-21.2132 25.4319,48.8472 1.93,-11.5002 48.3996,55.587 39.3959,-124.2488 16.1625,1.0102 -26.264,-57.5787 -23.2335,-10.1016 -8.0812,25.2539 0,-14.1421 -20.2031,31.3147 -21.2132,-7.0711 -1.0101,12.1219 -39.396,-14.1422 5.0508,10.1015 z"
       id="path5466-1-8-1"
       inkscape:connector-curvature="0"
       sodipodi:nodetypes="cccccccccccccccccccc"
       inkscape:export-filename="D:\images\PNG\g3968.png"
       inkscape:export-xdpi="41.097588"
       inkscape:export-ydpi="41.097588" />
    <path
       style="fill:#704f4f;fill-opacity:1;stroke:none"
       d="m 458.25495,559.08 25,114.2857 2.8571,-7.1428 5,32.8571 c 0,0 0.7143,-6.4286 3.5715,-3.5714 2.8571,2.8571 17.1428,45.7143 17.1428,45.7143 l -10,-54.2858 -12.8571,-36.4285 z"
       id="path5450-4-4-1"
       inkscape:connector-curvature="0"
       inkscape:export-filename="D:\images\PNG\g3968.png"
       inkscape:export-xdpi="41.097588"
       inkscape:export-ydpi="41.097588" />
    <path
       style="fill:#9b8282;fill-opacity:1;stroke:none"
       d="m 421.04805,831.8665 -6.0609,17.67779 5.0508,11.6167 16.6675,-1.0101 -13.132,-8.5863 z"
       id="path5452-3-8-3"
       inkscape:connector-curvature="0"
       inkscape:export-filename="D:\images\PNG\g3968.png"
       inkscape:export-xdpi="41.097588"
       inkscape:export-ydpi="41.097588" />
    <path
       style="fill:#9b8282;fill-opacity:1;stroke:none"
       d="m 440.24095,841.46299 -5.3033,12.6268 0.7577,14.3947 19.9504,4.5456 12.8795,-8.0812 -21.7183,-2.2729 z"
       id="path5454-5-6-8"
       inkscape:connector-curvature="0"
       sodipodi:nodetypes="ccccccc"
       inkscape:export-filename="D:\images\PNG\g3968.png"
       inkscape:export-xdpi="41.097588"
       inkscape:export-ydpi="41.097588" />
    <path
       style="fill:#9b8282;fill-opacity:1;stroke:none"
       d="m 469.03035,841.96809 -6.3135,18.4352 7.5762,17.1727 41.1637,-11.8694 -32.0724,-5.3033 -9.0913,-18.6878 z"
       id="path5456-5-0-7"
       inkscape:connector-curvature="0"
       inkscape:export-filename="D:\images\PNG\g3968.png"
       inkscape:export-xdpi="41.097588"
       inkscape:export-ydpi="41.097588" />
  </g>
</svg>
